<svg width="90" height="90" viewBox="0 0 90 90" fill="none" xmlns="http://www.w3.org/2000/svg">
<path d="M55.1362 78.75H11.25V22.5H73.125V61.0515L55.1362 78.75Z" fill="#190083"/>
<path d="M60.7612 73.125H16.875V16.875H78.75V55.4265L60.7612 73.125Z" fill="#6490F2"/>
<path fill-rule="evenodd" clip-rule="evenodd" d="M60.2085 71.775L77.4 54.8609V18.225H18.225V71.775H60.2085ZM78.75 55.4265L60.7612 73.125H16.875V16.875H78.75V55.4265Z" fill="#190083"/>
<path fill-rule="evenodd" clip-rule="evenodd" d="M60.0862 54.5265H78.3V55.8765H61.4362V72.45H60.0862V54.5265Z" fill="#190083"/>
<path d="M30.9375 14.0625C30.9375 12.51 32.1975 11.25 33.75 11.25C35.3025 11.25 36.5625 12.51 36.5625 14.0625V21.9375C36.5625 23.49 35.3025 24.75 33.75 24.75C32.1975 24.75 30.9375 23.49 30.9375 21.9375V14.0625Z" fill="#6490F2"/>
<path fill-rule="evenodd" clip-rule="evenodd" d="M29.5875 14.0625C29.5875 11.7645 31.452 9.90002 33.75 9.90002C36.0481 9.90002 37.9125 11.7645 37.9125 14.0625V21.9375C37.9125 24.2356 36.0481 26.1 33.75 26.1C31.452 26.1 29.5875 24.2356 29.5875 21.9375V14.0625ZM33.75 11.25C32.1975 11.25 30.9375 12.51 30.9375 14.0625V21.9375C30.9375 23.49 32.1975 24.75 33.75 24.75C35.3025 24.75 36.5625 23.49 36.5625 21.9375V14.0625C36.5625 12.51 35.3025 11.25 33.75 11.25Z" fill="#190083"/>
<path d="M59.175 14.0625C59.175 12.51 60.435 11.25 61.9875 11.25C63.54 11.25 64.8 12.51 64.8 14.0625V21.9375C64.8 23.49 63.54 24.75 61.9875 24.75C60.435 24.75 59.175 23.49 59.175 21.9375V14.0625Z" fill="#6490F2"/>
<path fill-rule="evenodd" clip-rule="evenodd" d="M57.825 14.0625C57.825 11.7645 59.6895 9.90002 61.9875 9.90002C64.2856 9.90002 66.15 11.7645 66.15 14.0625V21.9375C66.15 24.2356 64.2856 26.1 61.9875 26.1C59.6895 26.1 57.825 24.2356 57.825 21.9375V14.0625ZM61.9875 11.25C60.435 11.25 59.175 12.51 59.175 14.0625V21.9375C59.175 23.49 60.435 24.75 61.9875 24.75C63.54 24.75 64.8 23.49 64.8 21.9375V14.0625C64.8 12.51 63.54 11.25 61.9875 11.25Z" fill="#190083"/>
</svg>
