<svg width="121" height="31" viewBox="0 0 121 31" fill="none" xmlns="http://www.w3.org/2000/svg">
<g clip-path="url(#clip0_1_443)">
<path d="M41.593 24V17.6722H39.3142V15.0557H41.5838C41.6207 13.1165 41.2424 10.9175 43.346 9.87835C44.4623 9.32165 45.8739 9.58144 47.0179 9.72062V11.9474C46.04 11.9474 45.1912 11.8082 44.6838 12.4577C44.2963 12.9495 44.4254 14.3134 44.4254 15.0557H46.9165L46.5197 17.6722L44.4162 17.6814V24C44.6653 24 45.0712 23.8794 45.2927 23.8237C45.5879 23.7495 45.837 23.666 46.123 23.5639C47.0733 23.2392 48.0882 22.6082 48.8355 21.9773C49.3244 21.5598 49.7673 21.0959 50.1548 20.5856C51.0866 19.3237 51.6863 17.9969 51.9262 16.4196C51.9631 16.1598 51.9908 15.8907 52.0092 15.6309V14.4619C51.9539 13.5155 51.7417 12.5876 51.3911 11.7062C51.0313 10.7784 50.5146 9.92474 49.8688 9.16392C49.8134 9.09897 49.795 9.08969 49.7304 9.01546C49.4721 8.69072 49.1861 8.45876 48.9185 8.20825L48.0143 7.49381C47.0917 6.88144 46.0677 6.43608 44.979 6.19485C44.4346 6.08351 43.8811 6.01856 43.3183 6H42.6909C42.1374 6.00928 41.593 6.08351 41.0487 6.19485C40.4951 6.32474 39.9508 6.50103 39.4249 6.72371C38.9359 6.93711 38.4746 7.18763 38.0318 7.47526L37.266 8.05052C36.5187 8.66289 35.8821 9.3866 35.3655 10.2124C35.0425 10.732 35.0518 10.7505 34.7934 11.2701C34.6366 11.6505 34.489 12.0495 34.369 12.4485C34.1568 13.1072 34.0369 13.7938 34 14.4897V15.5196C34.0277 16.0948 34.1107 16.6701 34.2491 17.2361C34.3783 17.7835 34.5628 18.3216 34.8027 18.832C35.0887 19.4072 35.1809 19.6577 35.5961 20.2237C36.2235 21.0959 36.3711 21.2258 37.1276 21.9309C37.1738 21.968 37.2199 22.0144 37.266 22.0423C37.3306 22.0887 37.3491 22.1165 37.4136 22.1722C37.5243 22.2649 37.6166 22.3299 37.7365 22.4134C38.6499 23.0443 39.5818 23.5361 40.6797 23.8052C40.9288 23.8701 41.3439 24 41.593 24Z" fill="black"/>
</g>
<g clip-path="url(#clip1_1_443)">
<path d="M104.688 12.7589H107.34V21.3304H104.688V12.7589ZM111.654 17.3018V21.3304H109.026V12.7589H111.556V13.9467C111.678 13.9467 111.617 13.91 111.788 13.6773C111.825 13.6283 111.862 13.5794 111.898 13.5426C111.947 13.4936 111.959 13.4569 112.008 13.4079C112.57 12.8447 113.34 12.5385 114.134 12.5508C114.99 12.5508 115.796 12.7345 116.371 13.2855L116.493 13.4079C116.53 13.4447 116.578 13.4936 116.603 13.5426C117.006 14.0814 117.153 14.5957 117.263 15.3671C117.324 16.0038 117.348 16.6406 117.348 17.2896V21.3549H114.684V16.8365C114.684 16.212 114.611 15.4161 114.061 15.061C113.743 14.8528 113.475 14.8773 113.12 14.8773C112.802 14.8773 112.497 14.9875 112.253 15.1957C112.204 15.2324 112.167 15.2692 112.13 15.3181C112.057 15.4038 111.984 15.5141 111.935 15.612C111.703 16.0528 111.654 16.6406 111.654 17.3018ZM107.56 10.0283C107.56 10.4324 107.389 10.8243 107.108 11.1059C106.521 11.7181 105.544 11.7426 104.933 11.1549C104.322 10.5671 104.31 9.58752 104.896 8.97527L104.933 8.93854C105.031 8.84058 105.128 8.75486 105.251 8.69364C105.996 8.26507 106.937 8.52221 107.352 9.26915C107.487 9.5018 107.56 9.77119 107.56 10.0283ZM102 7.50588V22.4814C102 22.9467 102.049 23.1916 102.306 23.5345C102.538 23.8039 102.855 23.9753 103.21 23.9998H118.741C118.937 23.9998 119.12 23.9508 119.279 23.8528C119.829 23.5712 119.988 23.0814 119.988 22.4814V7.50588C120 7.29772 119.976 7.1018 119.914 6.90588C119.756 6.40384 119.291 6.04874 118.766 6.01201H103.222C102.733 5.99976 102.244 6.37935 102.073 6.88139C102.012 7.08956 101.988 7.29772 102 7.50588Z" fill="black"/>
</g>
<g clip-path="url(#clip2_1_443)">
<path d="M86 8.12833C85.332 8.49171 84.6184 8.72963 83.873 8.84643C84.6395 8.28407 85.223 7.40159 85.4973 6.33742C84.7836 6.86085 83.9961 7.22855 83.1559 7.43619C82.4809 6.54939 81.5141 6 80.4629 6C78.4203 6 76.775 8.04182 76.775 10.5422C76.775 10.9012 76.7996 11.2473 76.8594 11.5761C73.7902 11.39 71.0762 9.58183 69.2516 6.82624C68.9316 7.50541 68.7453 8.28407 68.7453 9.12329C68.7453 10.6979 69.4027 12.0908 70.3836 12.8955C69.7895 12.8825 69.2094 12.6705 68.7172 12.3374V12.3893C68.7172 14.5955 69.9969 16.4297 71.6738 16.8493C71.375 16.9488 71.0445 17.0007 70.707 17.0007C70.4715 17.0007 70.2324 16.9834 70.0074 16.9229C70.4855 18.7224 71.8426 20.0418 73.4562 20.0851C72.2012 21.292 70.6051 22.0231 68.8824 22.0231C68.5801 22.0231 68.2883 22.0058 68 21.9625C69.6348 23.2603 71.5719 24 73.6602 24C80.4523 24 84.1648 17.0786 84.1648 11.0786C84.1648 10.8796 84.1578 10.6849 84.1508 10.4903C84.882 9.85004 85.4973 9.04975 86 8.12833Z" fill="black"/>
</g>
<g clip-path="url(#clip3_1_443)">
<path fill-rule="evenodd" clip-rule="evenodd" d="M6.00358 15.0054C6.00358 13.3437 7.34366 12.0036 9.00537 12.0036C10.6671 12.0036 12.0072 13.3437 12.0072 15.0054C12.0072 16.6671 10.6671 18.0072 9.00537 18.0072C7.34366 18.0072 6.00358 16.6564 6.00358 15.0054ZM4.37404 15.0054C4.37404 17.5569 6.44313 19.626 8.99465 19.626C11.5462 19.626 13.6153 17.5569 13.6153 15.0054C13.6153 12.4538 11.5462 10.3848 8.99465 10.3848C6.44313 10.3848 4.37404 12.4538 4.37404 15.0054ZM12.7254 10.1918C12.7254 9.59143 13.2079 9.109 13.8082 9.109C14.4086 9.109 14.891 9.59143 14.891 10.1918C14.891 10.7921 14.4086 11.2746 13.8082 11.2746C13.2079 11.2746 12.7254 10.7921 12.7254 10.1918ZM5.36034 22.3276C6.30376 22.3705 6.59322 22.3812 8.99465 22.3812C11.3961 22.3812 11.6855 22.3705 12.629 22.3276C13.5081 22.2847 13.9798 22.1453 14.3014 22.0167C14.7195 21.8559 15.0197 21.6629 15.3413 21.3413C15.6522 21.0304 15.8559 20.7302 16.0167 20.3014C16.1346 19.9798 16.2847 19.5081 16.3276 18.629C16.3705 17.6748 16.3812 17.3961 16.3812 14.9946C16.3812 12.5932 16.3705 12.3038 16.3276 11.3603C16.2847 10.4812 16.1453 10.0095 16.0167 9.68791C15.8559 9.26981 15.6629 8.96963 15.3413 8.64801C15.0304 8.33711 14.7302 8.13341 14.3014 7.9726C13.9798 7.85468 13.5081 7.70459 12.629 7.6617C11.6748 7.61882 11.3961 7.6081 8.99465 7.6081C6.59322 7.6081 6.30376 7.61882 5.36034 7.6617C4.48124 7.70459 4.00953 7.84396 3.68791 7.9726C3.26981 8.13341 2.96963 8.32639 2.64801 8.64801C2.33711 8.95891 2.13341 9.25909 1.9726 9.68791C1.85468 10.0095 1.70459 10.4812 1.6617 11.3603C1.61882 12.3145 1.6081 12.5932 1.6081 14.9946C1.6081 17.3961 1.61882 17.6855 1.6617 18.629C1.70459 19.5081 1.84396 19.9798 1.9726 20.3014C2.13341 20.7195 2.32639 21.0197 2.64801 21.3413C2.95891 21.6522 3.25909 21.8559 3.68791 22.0167C4.00953 22.1453 4.49196 22.2847 5.36034 22.3276ZM5.28529 6.0536C4.33115 6.09649 3.67719 6.24658 3.09828 6.47171C2.50864 6.69684 2.00477 7.00774 1.50089 7.51162C1.00774 8.01549 0.707565 8.50864 0.47171 9.109C0.246576 9.67719 0.0964861 10.3312 0.0536034 11.296C0.0107207 12.2502 0 12.5611 0 15.0054C0 17.4497 0.0107207 17.7606 0.0536034 18.7147C0.0964861 19.6689 0.246576 20.3228 0.47171 20.9017C0.696844 21.4914 1.00774 21.9952 1.51162 22.4991C2.01549 23.003 2.50864 23.3032 3.109 23.539C3.67719 23.7642 4.33115 23.9142 5.29601 23.9571C6.26087 24 6.56105 24.0107 9.00537 24.0107C11.4497 24.0107 11.7606 24 12.7147 23.9571C13.6689 23.9142 14.3228 23.7642 14.9017 23.539C15.4914 23.3139 15.9952 23.003 16.4991 22.4991C17.003 21.9952 17.3032 21.4914 17.539 20.9017C17.7642 20.3335 17.9142 19.6796 17.9571 18.7147C18 17.7499 18.0107 17.4497 18.0107 15.0054C18.0107 12.5611 18 12.2502 17.9571 11.296C17.9142 10.3419 17.7642 9.68791 17.539 9.109C17.3139 8.51936 17.003 8.01549 16.4991 7.51162C15.9952 7.00774 15.4914 6.70756 14.9017 6.47171C14.3335 6.24658 13.6796 6.09649 12.7147 6.0536C11.7499 6.01072 11.4497 6 9.00537 6C6.56105 6 6.25015 6.01072 5.28529 6.0536Z" fill="black"/>
</g>
<defs>
<clipPath id="clip0_1_443">
<rect width="18" height="18" fill="white" transform="translate(34 6)"/>
</clipPath>
<clipPath id="clip1_1_443">
<rect width="18" height="18" fill="white" transform="translate(102 6)"/>
</clipPath>
<clipPath id="clip2_1_443">
<rect width="18" height="18" fill="white" transform="translate(68 6)"/>
</clipPath>
<clipPath id="clip3_1_443">
<rect width="18" height="18" fill="white" transform="translate(0 6)"/>
</clipPath>
</defs>
</svg>
